<?xml version="1.0" encoding="UTF-8" standalone="no"?><!DOCTYPE svg PUBLIC "-//W3C//DTD SVG 1.1//EN" "http://www.w3.org/Graphics/SVG/1.1/DTD/svg11.dtd"><svg width="100%" height="100%" viewBox="0 0 8000 4500" version="1.1" xmlns="http://www.w3.org/2000/svg" xmlns:xlink="http://www.w3.org/1999/xlink" xml:space="preserve" xmlns:serif="http://www.serif.com/" style="fill-rule:evenodd;clip-rule:evenodd;stroke-linejoin:round;stroke-miterlimit:2;"><path d="M1470.33,383.672l-171.028,638.718l-297.635,-172.279l468.663,-466.439Z" style="fill:#7f4a4a;"/><path d="M2107.36,383.672l-171.027,638.718l-297.636,-172.279l468.663,-466.439Z" style="fill:#7f4a4a;"/><path d="M2777.92,383.672l-171.027,638.718l-297.636,-172.279l468.663,-466.439Z" style="fill:#7f4a4a;"/><path d="M3429.32,383.672l-171.027,638.718l-297.636,-172.279l468.663,-466.439Z" style="fill:#7f4a4a;"/><path d="M4874.15,332.097l26.823,660.675l-335.422,-75.887l308.599,-584.788Z" style="fill:#7f4a4a;"/><path d="M5772.84,332.097l26.823,660.675l-335.423,-75.887l308.6,-584.788Z" style="fill:#7f4a4a;"/><path d="M3768.22,943.315l469.152,-256.681l65.561,248.254l-534.713,8.427Z" style="fill:#7f4a4a;"/><path d="M4368.19,441.294l-631.468,145.173l-12.088,-220.425l643.556,75.252Z" style="fill:#7f4a4a;"/><path d="M443.441,337.871l40.776,653.535l-286.92,-46.754l246.144,-606.781Z" style="fill:#7f4a4a;"/><path d="M1614.56,967.635l-325.518,-553.673l127.327,-57.257l198.191,610.93Z" style="fill:#7f4a4a;"/><path d="M2251.59,967.635l-325.518,-553.673l127.326,-57.257l198.192,610.93Z" style="fill:#7f4a4a;"/><path d="M2922.14,967.635l-325.519,-553.673l127.327,-57.257l198.192,610.93Z" style="fill:#7f4a4a;"/><path d="M3573.54,967.635l-325.518,-553.673l127.327,-57.257l198.191,610.93Z" style="fill:#7f4a4a;"/><path d="M5158.59,1009.15l-175.791,-628.422l269.049,-17.426l-93.258,645.848Z" style="fill:#7f4a4a;"/><path d="M4367.67,799.719l-623.373,-154.67l48.148,-131.043l575.225,285.713Z" style="fill:#7f4a4a;"/><path d="M840.63,990.954l-278.796,-588.478l248.428,-61.992l30.368,650.47Z" style="fill:#7f4a4a;"/><path d="M1492.94,721.332l-73.067,161.979l-94.479,-102.783l167.546,-59.196Z" style="fill:#7f4a4a;"/><path d="M2129.97,721.332l-73.067,161.979l-94.479,-102.783l167.546,-59.196Z" style="fill:#7f4a4a;"/><path d="M2800.52,721.332l-73.066,161.979l-94.48,-102.783l167.546,-59.196Z" style="fill:#7f4a4a;"/><path d="M3451.92,721.332l-73.067,161.979l-94.479,-102.783l167.546,-59.196Z" style="fill:#7f4a4a;"/><path d="M5102.1,586.593l-151.021,233.635l-94.479,-102.782l245.5,-130.853Z" style="fill:#7f4a4a;"/><path d="M855.431,400.727l-288.667,386.437l-70.455,-64.423l359.122,-322.014Z" style="fill:#7f4a4a;"/><path d="M623.43,790.198l-320.766,-367.316l117.217,-75.832l203.549,443.148Z" style="fill:#7f4a4a;"/></svg>